<svg aria-hidden="true" style="position: absolute; width: 0; height: 0; overflow: hidden;" version="1.1" xmlns="http://www.w3.org/2000/svg" xmlns:xlink="http://www.w3.org/1999/xlink">
<defs>
<symbol id="icon-python" viewBox="0 0 32 32">
<title>python</title>
<path fill="#3776ab" style="fill: var(--color1, #3776ab)" d="M19.080 0.24l1.2 0.267 0.973 0.347 0.787 0.4 0.6 0.427 0.453 0.453 0.333 0.453 0.213 0.44 0.133 0.4 0.053 0.347 0.027 0.267-0.013 0.173v7.12l-0.067 0.84-0.173 0.733-0.28 0.613-0.347 0.507-0.4 0.413-0.44 0.333-0.467 0.253-0.467 0.187-0.44 0.133-0.4 0.093-0.347 0.053-0.28 0.027h-7.96l-0.92 0.067-0.787 0.187-0.667 0.293-0.547 0.36-0.44 0.427-0.36 0.467-0.267 0.48-0.2 0.493-0.133 0.467-0.093 0.427-0.053 0.36-0.027 0.28v4.080h-2.973l-0.28-0.040-0.373-0.093-0.427-0.16-0.467-0.24-0.48-0.347-0.48-0.48-0.467-0.613-0.427-0.787-0.373-0.973-0.28-1.173-0.187-1.4-0.067-1.64 0.080-1.627 0.213-1.387 0.32-1.16 0.427-0.947 0.48-0.76 0.533-0.587 0.56-0.44 0.56-0.32 0.533-0.213 0.48-0.133 0.427-0.067 0.32-0.013h0.213l0.080 0.013h10.88v-1.107h-7.787l-0.013-3.667-0.027-0.493 0.067-0.453 0.147-0.413 0.227-0.373 0.333-0.347 0.413-0.307 0.507-0.267 0.587-0.24 0.68-0.2 0.773-0.16 0.853-0.133 0.947-0.080 1.027-0.053 1.12-0.027 1.693 0.067 1.427 0.173zM10.68 2.88l-0.307 0.44-0.107 0.547 0.107 0.547 0.307 0.453 0.44 0.293 0.547 0.12 0.547-0.12 0.44-0.293 0.307-0.453 0.107-0.547-0.107-0.547-0.307-0.44-0.44-0.293-0.547-0.12-0.547 0.12-0.44 0.293z"></path>
<path fill="#3776ab" style="fill: var(--color1, #3776ab)" d="M28.133 8.147l0.373 0.080 0.427 0.16 0.467 0.24 0.48 0.36 0.48 0.467 0.467 0.627 0.427 0.787 0.373 0.973 0.28 1.173 0.187 1.387 0.067 1.64-0.080 1.64-0.213 1.387-0.32 1.147-0.427 0.947-0.48 0.76-0.533 0.6-0.56 0.44-0.56 0.32-0.533 0.213-0.48 0.12-0.427 0.067-0.32 0.027-0.213-0.013h-10.96v1.093h7.787l0.013 3.68 0.027 0.48-0.067 0.453-0.147 0.413-0.227 0.387-0.333 0.333-0.413 0.32-0.507 0.267-0.587 0.227-0.68 0.2-0.773 0.173-0.853 0.12-0.947 0.093-1.027 0.053-1.12 0.013-1.693-0.053-1.427-0.187-1.2-0.267-0.973-0.333-0.787-0.4-0.6-0.44-0.453-0.453-0.333-0.453-0.213-0.44-0.133-0.4-0.053-0.333-0.027-0.267 0.013-0.173v-7.12l0.067-0.853 0.173-0.72 0.28-0.613 0.347-0.507 0.4-0.427 0.44-0.32 0.467-0.267 0.467-0.187 0.44-0.133 0.4-0.080 0.347-0.053 0.28-0.027 0.173-0.013h7.787l0.92-0.067 0.787-0.187 0.667-0.28 0.547-0.373 0.44-0.427 0.36-0.467 0.267-0.48 0.2-0.48 0.133-0.467 0.093-0.427 0.053-0.373 0.027-0.28v-4.080h2.787l0.187 0.013 0.28 0.040zM19.507 27.147l-0.307 0.44-0.107 0.547 0.107 0.547 0.307 0.44 0.44 0.307 0.547 0.107 0.547-0.107 0.44-0.307 0.307-0.44 0.107-0.547-0.107-0.547-0.307-0.44-0.44-0.307-0.547-0.107-0.547 0.107-0.44 0.307z"></path>
</symbol>
<symbol id="icon-raspberrypi" viewBox="0 0 32 32">
<title>raspberrypi</title>
<path fill="#c51a4a" style="fill: var(--color2, #c51a4a)" d="M21.481 23.117c-1.143 1.319-1.779 3.72-0.945 4.495 0.795 0.599 2.935 0.521 4.513-1.64 1.147-1.44 0.759-3.857 0.108-4.496-0.973-0.74-2.371 0.219-3.676 1.657v-0.016zM10.739 23.517c-1.211-1.387-2.784-2.211-3.801-1.599-0.68 0.509-0.807 2.247 0.164 3.956 1.437 2.032 3.461 2.239 4.295 1.743 0.879-0.651 0.4-2.849-0.657-4.1zM16.212 27.711c-1.471-0.035-3.731 0.585-3.701 1.376-0.024 0.537 1.775 2.096 3.607 2.017 1.768 0.040 3.599-1.519 3.576-2.199-0.005-0.697-1.997-1.236-3.476-1.179l-0.005-0.016zM16.112 9.119c-1.7-0.043-3.336 1.244-3.336 1.991-0.005 0.907 1.344 1.835 3.347 1.859 2.057 0.013 3.357-0.745 3.376-1.68 0.021-1.059-1.859-2.185-3.357-2.169h-0.029zM12.017 9.828c-2.847-0.46-5.217 1.2-5.123 4.256 0.093 1.179 6.173-4.055 5.124-4.236l-0.001-0.020zM25.016 14.163c0.095-3.036-2.279-4.695-5.125-4.235-1.049 0.18 5.029 5.415 5.125 4.235zM25.501 15.261c-1.652-0.439-0.56 6.732 0.784 6.153 1.479-1.159 1.955-4.595-0.784-6.133v-0.020zM5.637 21.495c1.343 0.6 2.436-6.572 0.785-6.133-2.737 1.537-2.264 4.973-0.785 6.153v-0.020zM18.191 13.564c-1.528 1-1.805 3.237-0.615 4.995 1.188 1.757 3.391 2.417 4.921 1.437 1.528-0.977 1.804-3.216 0.616-4.995-1.189-1.777-3.393-2.417-4.923-1.417v-0.020zM14.063 13.744c-1.528-0.979-3.732-0.339-4.919 1.419-1.189 1.779-0.915 4.016 0.615 5.015s3.732 0.359 4.921-1.419c1.18-1.757 0.9-3.996-0.62-4.993l0.003-0.021zM19.888 23.293c-0.012-1.857-1.669-3.357-3.708-3.336-2.036 0.021-3.681 1.519-3.672 3.376v0.039c0.013 1.859 1.672 3.356 3.711 3.336 2.036 0 3.675-1.517 3.656-3.356v-0.039l0.013-0.020zM24.167 3.116c-3.076 1.579-4.869 2.837-5.852 3.917 0.503 1.997 3.125 2.077 4.084 2.016-0.196-0.080-0.361-0.199-0.42-0.359 0.24-0.16 1.095-0.021 1.691-0.34-0.228-0.040-0.336-0.081-0.439-0.26 0.559-0.18 1.167-0.32 1.521-0.62-0.191 0-0.371 0.040-0.623-0.12 0.503-0.259 1.037-0.479 1.46-0.877-0.261 0-0.541 0-0.621-0.1 0.461-0.28 0.847-0.58 1.169-0.939-0.363 0.060-0.52 0.021-0.605-0.040 0.348-0.34 0.791-0.639 0.999-1.080-0.271 0.101-0.521 0.12-0.696 0 0.121-0.259 0.627-0.419 0.92-1.039-0.287 0.040-0.588 0.061-0.648 0 0.131-0.519 0.359-0.817 0.58-1.139-0.609 0-1.533 0-1.489-0.039l0.377-0.38c-0.597-0.16-1.205 0.020-1.648 0.16-0.199-0.14 0-0.34 0.247-0.54-0.52 0.081-0.977 0.18-1.379 0.341-0.219-0.2 0.14-0.38 0.32-0.581-0.799 0.16-1.119 0.36-1.459 0.56-0.24-0.22-0.020-0.419 0.139-0.599-0.599 0.219-0.899 0.499-1.219 0.757-0.12-0.139-0.279-0.239-0.080-0.599-0.419 0.24-0.739 0.52-0.979 0.839-0.259-0.179-0.159-0.399-0.159-0.599-0.44 0.36-0.72 0.72-1.059 1.081-0.081-0.041-0.14-0.2-0.18-0.461-1.039 1-2.519 3.497-0.38 4.475 1.799-1.459 3.975-2.537 6.372-3.337l0.055-0.1zM7.821 3.116c2.397 0.8 4.559 1.877 6.369 3.357 2.128-1 0.657-3.497-0.376-4.475-0.055 0.259-0.113 0.439-0.18 0.479-0.34-0.36-0.616-0.72-1.051-1.080 0 0.2 0.103 0.44-0.156 0.6-0.233-0.319-0.547-0.6-0.967-0.84 0.199 0.341 0.033 0.44-0.075 0.599-0.32-0.3-0.62-0.579-1.199-0.799 0.16 0.199 0.4 0.4 0.16 0.62-0.319-0.199-0.659-0.4-1.437-0.56 0.18 0.199 0.539 0.4 0.317 0.6-0.42-0.163-0.88-0.283-1.38-0.344 0.241 0.2 0.456 0.385 0.256 0.54-0.46-0.16-1.075-0.34-1.673-0.18l0.379 0.379c0.040 0.049-0.879 0.040-1.495 0.047 0.22 0.3 0.449 0.599 0.58 1.139-0.060 0.060-0.36 0.021-0.644 0 0.3 0.599 0.799 0.76 0.917 1.020-0.18 0.128-0.419 0.1-0.697 0 0.219 0.419 0.659 0.719 0.997 1.080-0.099 0.059-0.24 0.099-0.619 0.049 0.319 0.347 0.699 0.659 1.159 0.939-0.080 0.093-0.361 0.092-0.639 0.1 0.419 0.405 0.959 0.619 1.459 0.884-0.26 0.181-0.44 0.14-0.62 0.14 0.34 0.3 0.96 0.439 1.519 0.619-0.12 0.18-0.219 0.22-0.459 0.26 0.599 0.339 1.437 0.18 1.677 0.36-0.060 0.159-0.219 0.279-0.419 0.36 0.959 0.060 3.596-0.020 4.096-2.019-0.981-1.076-2.779-2.336-5.855-3.895l0.053 0.021zM10.133 0.137c0.315-0.009 0.581 0.18 0.869 0.268 0.705-0.227 0.867 0.084 1.213 0.212 0.769-0.16 1.003 0.188 1.372 0.559l0.429-0.012c1.159 0.676 1.74 2.048 1.943 2.753 0.203-0.705 0.779-2.079 1.943-2.753l0.428 0.009c0.369-0.377 0.604-0.719 1.372-0.557 0.348-0.14 0.507-0.44 1.215-0.221 0.44-0.139 0.827-0.5 1.409-0.060 0.491-0.199 0.968-0.26 1.393 0.12 0.66-0.080 0.871 0.081 1.032 0.28 0.144 0 1.079-0.139 1.509 0.48 1.080-0.12 1.419 0.619 1.032 1.317 0.22 0.34 0.449 0.659-0.067 1.3 0.2 0.359 0.083 0.737-0.36 1.217 0.121 0.499-0.099 0.84-0.499 1.119 0.080 0.68-0.64 1.080-0.839 1.219-0.081 0.4-0.241 0.779-1.060 0.979-0.119 0.599-0.619 0.697-1.099 0.819 1.58 0.9 2.917 2.077 2.917 4.975l0.241 0.399c1.799 1.079 3.416 4.536 0.899 7.352-0.159 0.879-0.439 1.499-0.681 2.197-0.359 2.817-2.776 4.135-3.415 4.295-0.919 0.7-1.917 1.36-3.256 1.817-1.256 1.281-2.635 1.781-3.992 1.781h-0.123c-1.377 0-2.751-0.5-4.016-1.78-1.343-0.459-2.339-1.117-3.263-1.817-0.639-0.16-3.044-1.476-3.416-4.295-0.249-0.699-0.525-1.339-0.691-2.216-2.525-2.817-0.908-6.273 0.888-7.353l0.229-0.4c0-2.896 1.34-4.076 2.917-4.973-0.479-0.12-0.96-0.22-1.097-0.82-0.82-0.2-0.98-0.579-1.060-0.979-0.2-0.14-0.919-0.539-0.839-1.237-0.4-0.281-0.62-0.62-0.5-1.139-0.419-0.461-0.539-0.86-0.36-1.22-0.52-0.639-0.279-0.977-0.060-1.299-0.38-0.7-0.040-1.459 1.039-1.339 0.419-0.62 1.36-0.479 1.497-0.479 0.161-0.2 0.38-0.38 1.039-0.3 0.419-0.38 0.9-0.32 1.399-0.136 0.201-0.16 0.381-0.219 0.541-0.219l-0.076 0.137z"></path>
</symbol>
<symbol id="icon-dot-net" viewBox="0 0 32 32">
<title>dot-net</title>
<path fill="#5c2d91" style="fill: var(--color3, #5c2d91)" d="M4.223 10.087v11.665h1.364v-8.433c0.003-0.094 0.004-0.204 0.004-0.314 0-0.453-0.025-0.9-0.074-1.339l0.005 0.054h0.051c0.108 0.28 0.233 0.52 0.38 0.744l-0.009-0.015 5.996 9.303h1.676v-11.665h-1.362v8.203c-0.002 0.079-0.003 0.172-0.003 0.265 0 0.511 0.031 1.014 0.091 1.509l-0.006-0.059h-0.031c-0.073-0.141-0.231-0.4-0.474-0.78l-5.836-9.138zM16.643 10.087v11.665h6.2l0.006-1.28h-4.812v-4.044h4.211v-1.229h-4.211v-3.878h4.518v-1.235zM23.893 10.087v1.235h3.353v10.431h1.362v-10.431h3.392v-1.235zM0.871 20.089c-0.241 0.006-0.456 0.11-0.608 0.274l-0.001 0.001c-0.162 0.162-0.263 0.386-0.263 0.634 0 0.002 0 0.004 0 0.006v-0c-0 0.003-0 0.008-0 0.012 0 0.246 0.1 0.468 0.262 0.628l0 0c0.158 0.166 0.38 0.269 0.626 0.269 0.005 0 0.010-0 0.014-0h-0.001c0.002 0 0.004 0 0.006 0 0.249 0 0.474-0.103 0.634-0.268l0-0c0.166-0.16 0.269-0.384 0.269-0.632 0-0.003 0-0.006-0-0.009v0c0-0.001 0-0.002 0-0.003 0-0.25-0.103-0.475-0.268-0.637l-0-0c-0.16-0.169-0.387-0.275-0.638-0.275-0.001 0-0.002 0-0.002 0h0c-0.005-0-0.010-0-0.016-0s-0.011 0-0.016 0h0.001z"></path>
</symbol>
<symbol id="icon-adobephotoshop" viewBox="0 0 32 32">
<title>adobephotoshop</title>
<path fill="#00c8ff" style="fill: var(--color4, #00c8ff)" d="M0 0.4v31.2h32v-31.2h-32zM1.333 1.733h29.333v28.533h-29.333v-28.533zM7.733 7.707c0-0.089 0.187-0.155 0.299-0.155 0.859-0.044 2.117-0.067 3.437-0.067 3.696 0 5.133 2.027 5.133 4.621 0 3.387-2.456 4.84-5.469 4.84-0.507 0-0.68-0.023-1.033-0.023v5.123c0 0.111-0.044 0.155-0.153 0.155h-2.059c-0.111 0-0.153-0.040-0.153-0.151v-14.344zM10.1 14.789c0.307 0.021 0.549 0.021 1.080 0.021 1.56 0 3.027-0.549 3.027-2.661 0-1.693-1.048-2.552-2.829-2.552-0.528 0-1.033 0.021-1.276 0.044v5.152zM21.576 13.205c-1.056 0-1.408 0.528-1.408 0.968 0 0.484 0.24 0.813 1.649 1.54 2.091 1.013 2.749 1.98 2.749 3.409 0 2.133-1.627 3.28-3.827 3.28-1.168 0-2.16-0.244-2.733-0.573-0.087-0.044-0.107-0.109-0.107-0.22v-1.956c0-0.133 0.064-0.177 0.152-0.112 0.832 0.551 1.803 0.792 2.683 0.792 1.056 0 1.496-0.44 1.496-1.035 0-0.484-0.307-0.903-1.649-1.607-1.893-0.907-2.685-1.827-2.685-3.369 0-1.716 1.341-3.147 3.673-3.147 1.147 0 1.952 0.176 2.392 0.373 0.109 0.067 0.133 0.176 0.133 0.264v1.827c0 0.111-0.067 0.177-0.2 0.133-0.592-0.352-1.467-0.573-2.324-0.573z"></path>
</symbol>
<symbol id="icon-html5" viewBox="0 0 32 32">
<title>html5</title>
<path fill="#e34f26" style="fill: var(--color5, #e34f26)" d="M2 0h28l-2.547 28.751-11.484 3.249-11.419-3.251-2.551-28.749zM11.375 13l-0.309-3.624 13.412 0.004 0.307-3.496-17.568-0.004 0.931 10.68h12.168l-0.435 4.568-3.88 1.072-3.94-1.080-0.251-2.813h-3.479l0.44 5.561 7.229 1.933 7.172-1.924 0.992-10.876h-12.789z"></path>
</symbol>
<symbol id="icon-react" viewBox="0 0 32 32">
<title>react</title>
<path fill="#61dafb" style="fill: var(--color6, #61dafb)" d="M18.852 16c0 1.575-1.277 2.852-2.852 2.852s-2.852-1.277-2.852-2.852c0-1.575 1.277-2.852 2.852-2.852s2.852 1.277 2.852 2.852z"></path>
<path fill="#61dafb" style="fill: var(--color6, #61dafb)" d="M8.011 21.673l-0.629-0.16c-4.691-1.185-7.381-3.197-7.381-5.519s2.691-4.333 7.381-5.519l0.629-0.159 0.177 0.624c0.545 1.86 1.163 3.443 1.899 4.957l-0.082-0.186 0.135 0.284-0.135 0.284c-0.656 1.329-1.275 2.912-1.761 4.551l-0.056 0.22-0.177 0.623zM7.089 11.933c-3.565 1.001-5.753 2.533-5.753 4.061 0 1.527 2.188 3.059 5.753 4.061 0.512-1.62 1.046-2.965 1.662-4.263l-0.086 0.202c-0.531-1.098-1.066-2.443-1.511-3.828l-0.065-0.234zM23.989 21.673l-0.177-0.625c-0.544-1.859-1.162-3.441-1.9-4.954l0.081 0.184-0.135-0.284 0.135-0.284c0.656-1.329 1.275-2.911 1.762-4.55l0.056-0.221 0.177-0.624 0.631 0.159c4.689 1.185 7.38 3.197 7.38 5.52s-2.691 4.333-7.38 5.519l-0.631 0.16zM23.335 15.995c0.64 1.385 1.169 2.747 1.576 4.061 3.567-1.003 5.753-2.535 5.753-4.061 0-1.528-2.188-3.059-5.753-4.061-0.511 1.619-1.045 2.963-1.662 4.262l0.086-0.2z"></path>
<path fill="#61dafb" style="fill: var(--color6, #61dafb)" d="M7.080 11.927l-0.177-0.623c-1.319-4.648-0.919-7.979 1.097-9.141 1.977-1.141 5.152 0.207 8.479 3.621l0.453 0.465-0.453 0.465c-1.146 1.19-2.207 2.482-3.162 3.853l-0.068 0.103-0.18 0.257-0.313 0.027c-1.875 0.151-3.596 0.439-5.264 0.86l0.218-0.047-0.629 0.159zM9.608 3.087c-0.357 0-0.673 0.077-0.94 0.231-1.325 0.764-1.56 3.42-0.647 7.004 1.21-0.285 2.681-0.521 4.18-0.658l0.131-0.010c0.894-1.264 1.792-2.37 2.756-3.414l-0.020 0.022c-2.080-2.025-4.049-3.175-5.46-3.175zM22.393 30.236c-0.001 0-0.001 0 0 0-1.9 0-4.34-1.431-6.872-4.031l-0.453-0.465 0.453-0.465c1.146-1.19 2.206-2.482 3.16-3.854l0.068-0.103 0.18-0.257 0.312-0.027c1.875-0.15 3.597-0.438 5.267-0.858l-0.218 0.046 0.629-0.159 0.179 0.624c1.316 4.645 0.917 7.977-1.099 9.139-0.449 0.259-0.988 0.411-1.562 0.411-0.016 0-0.031-0-0.047-0l0.002 0zM16.932 25.728c2.080 2.025 4.049 3.175 5.46 3.175h0.001c0.356 0 0.673-0.077 0.939-0.231 1.325-0.764 1.561-3.421 0.647-7.005-1.212 0.286-2.682 0.522-4.182 0.658l-0.13 0.010c-0.893 1.265-1.791 2.371-2.755 3.416l0.020-0.022z"></path>
<path fill="#61dafb" style="fill: var(--color6, #61dafb)" d="M24.92 11.927l-0.629-0.159c-1.453-0.376-3.175-0.664-4.939-0.806l-0.111-0.007-0.312-0.027-0.18-0.257c-1.021-1.474-2.082-2.766-3.237-3.966l0.009 0.010-0.453-0.465 0.453-0.465c3.325-3.413 6.499-4.761 8.479-3.621 2.016 1.163 2.416 4.493 1.099 9.14l-0.179 0.624zM19.667 9.653c1.523 0.139 2.969 0.364 4.312 0.668 0.915-3.584 0.679-6.24-0.647-7.004-1.317-0.761-3.793 0.405-6.4 2.944 0.943 1.022 1.841 2.128 2.666 3.289l0.069 0.103zM9.608 30.236c-0.014 0-0.030 0-0.046 0-0.574 0-1.113-0.152-1.577-0.419l0.015 0.008c-2.016-1.161-2.416-4.492-1.097-9.139l0.176-0.624 0.629 0.159c1.54 0.388 3.239 0.661 5.047 0.812l0.313 0.027 0.179 0.257c1.022 1.475 2.083 2.767 3.239 3.967l-0.010-0.010 0.453 0.465-0.453 0.465c-2.531 2.6-4.971 4.031-6.868 4.031zM8.021 21.667c-0.915 3.584-0.679 6.241 0.647 7.005 1.316 0.751 3.791-0.407 6.4-2.944-0.943-1.022-1.841-2.129-2.667-3.29l-0.069-0.103c-1.629-0.146-3.099-0.382-4.534-0.711l0.224 0.043z"></path>
<path fill="#61dafb" style="fill: var(--color6, #61dafb)" d="M16 22.504c-1.097 0-2.225-0.048-3.355-0.141l-0.313-0.027-0.18-0.257c-0.544-0.768-1.139-1.691-1.697-2.639l-0.103-0.19c-0.452-0.758-0.971-1.732-1.45-2.728l-0.105-0.243-0.133-0.284 0.133-0.284c0.584-1.239 1.102-2.212 1.658-3.161l-0.103 0.191c0.552-0.955 1.159-1.907 1.8-2.829l0.18-0.257 0.313-0.027c1.005-0.090 2.174-0.142 3.355-0.142s2.35 0.052 3.505 0.153l-0.15-0.011 0.312 0.027 0.179 0.257c1.177 1.666 2.294 3.567 3.252 5.56l0.104 0.24 0.135 0.284-0.135 0.284c-1.058 2.232-2.176 4.133-3.439 5.925l0.083-0.125-0.179 0.257-0.312 0.027c-1.129 0.093-2.259 0.141-3.356 0.141zM13.071 21.059c1.973 0.148 3.885 0.148 5.86 0 1.004-1.445 1.978-3.104 2.827-4.836l0.101-0.228c-0.947-1.958-1.922-3.617-3.012-5.19l0.083 0.126c-0.877-0.071-1.898-0.111-2.929-0.111s-2.052 0.040-3.063 0.119l0.134-0.008c-1.008 1.447-1.983 3.106-2.83 4.84l-0.099 0.224c0.951 1.96 1.926 3.619 3.014 5.193l-0.085-0.13z"></path>
</symbol>
<symbol id="icon-javascript" viewBox="0 0 32 32">
<title>javascript</title>
<path fill="#f7df1e" style="fill: var(--color7, #f7df1e)" d="M0 0h32v32h-32v-32zM29.379 24.368c-0.233-1.46-1.184-2.687-4.004-3.831-0.981-0.46-2.072-0.78-2.396-1.52-0.121-0.44-0.14-0.68-0.061-0.94 0.2-0.861 1.22-1.12 2.020-0.88 0.52 0.16 1 0.56 1.301 1.2 1.379-0.901 1.379-0.901 2.34-1.5-0.36-0.56-0.539-0.801-0.781-1.040-0.84-0.94-1.959-1.42-3.779-1.379l-0.94 0.119c-0.901 0.22-1.76 0.7-2.28 1.34-1.52 1.721-1.081 4.721 0.759 5.961 1.82 1.36 4.481 1.659 4.821 2.94 0.32 1.56-1.16 2.060-2.621 1.88-1.081-0.24-1.68-0.781-2.34-1.781l-2.44 1.401c0.28 0.64 0.6 0.919 1.080 1.479 2.32 2.341 8.12 2.221 9.161-1.339 0.039-0.12 0.32-0.94 0.099-2.2l0.061 0.089zM17.401 14.708h-2.997c0 2.584-0.012 5.152-0.012 7.74 0 1.643 0.084 3.151-0.184 3.615-0.44 0.919-1.573 0.801-2.088 0.64-0.528-0.261-0.796-0.621-1.107-1.14-0.084-0.14-0.147-0.261-0.169-0.261l-2.433 1.5c0.407 0.84 1 1.563 1.765 2.023 1.14 0.68 2.672 0.9 4.276 0.54 1.044-0.301 1.944-0.921 2.415-1.881 0.68-1.24 0.536-2.76 0.529-4.461 0.016-2.739 0-5.479 0-8.239l0.005-0.075z"></path>
</symbol>
<symbol id="icon-css3" viewBox="0 0 32 32">
<title>css3</title>
<path fill="#1572b6" style="fill: var(--color8, #1572b6)" d="M2 0h28l-2.547 28.751-11.484 3.249-11.42-3.251-2.549-28.749zM24.787 5.884l-17.573-0.004 0.284 3.496 13.5 0.003-0.34 3.621h-8.853l0.32 3.431h8.243l-0.488 4.697-3.88 1.072-3.941-1.080-0.251-2.813h-3.48l0.387 5.14 7.287 2.271 7.164-2.040 1.623-17.792z"></path>
</symbol>
<symbol id="icon-chrome" viewBox="0 0 32 32">
<title>chrome</title>
<path d="M8.071 13.954l-4.579-7.931c2.932-3.671 7.445-6.023 12.508-6.023 5.857 0 10.978 3.148 13.767 7.844h-13.055c-0.235-0.020-0.472-0.031-0.711-0.031-3.809 0-7.018 2.614-7.929 6.142zM21.728 10.156h9.171c0.711 1.81 1.101 3.781 1.101 5.844 0 8.776-7.066 15.9-15.818 15.998l6.544-11.334c0.921-1.324 1.462-2.932 1.462-4.664 0-2.287-0.943-4.357-2.459-5.844zM10.188 16c0-3.205 2.607-5.813 5.813-5.813s5.813 2.607 5.813 5.813c0 3.205-2.608 5.813-5.813 5.813s-5.813-2.608-5.813-5.813zM18.193 23.889l-4.581 7.934c-7.704-1.153-13.613-7.797-13.613-15.822 0-2.851 0.746-5.526 2.053-7.845l6.532 11.314c1.308 2.785 4.14 4.718 7.415 4.718 0.759 0 1.495-0.104 2.193-0.299z"></path>
</symbol>
<symbol id="icon-html-five" viewBox="0 0 32 32">
<title>html-five</title>
<path d="M1.892 0l2.567 28.801 11.524 3.199 11.554-3.204 2.572-28.796h-28.216zM24.52 9.42h-13.517l0.322 3.617h12.874l-0.97 10.844-7.245 2.008-7.237-2.008-0.495-5.547h3.547l0.252 2.82 3.933 1.060 0.009-0.002 3.935-1.062 0.408-4.58h-12.242l-0.953-10.681h17.694l-0.316 3.532z"></path>
</symbol>
</defs>
</svg>
